# AST/ASF file generated using VICON BodyLanguage
# -----------------------------------------------
:version 1.10
:name VICON
:units
  mass 1.0
  length 0.45
  angle deg
:documentation
   .ast/.asf automatically generated from VICON data using
   VICON BodyBuilder and BodyLanguage model FoxedUp or BRILLIANT.MOD
:root
   order TX TY TZ RX RY RZ
   axis XYZ
   position 0 0 0  
   orientation 0 -0 0 
:bonedata
  begin
     id 1 
     name lhipjoint
     direction 0.500677 -0.737119 0.453848 
     length 2.34727 
     axis 0 -0 0  XYZ
  end
  begin
     id 2 
     name lfemur
     direction 0.34202 -0.939693 0  
     length 7.53653  
     axis 0 -0 20  XYZ
    dof rx ry rz
    limits (-160.0 20.0)
           (-70.0 70.0)
           (-60.0 70.0)
  end
  begin
     id 3 
     name ltibia
     direction 0.34202 -0.939693 0   
     length 6.85572   
     axis 0 -0 20   XYZ
    dof rx
    limits (-10.0 170.0)
  end
  begin
     id 4 
     name lfoot
     direction 0.155313 -0.426718 0.890949   
     length 2.18324   
     axis -90 -1.13533e-015 20   XYZ
    dof rx rz
    limits (-45.0 90.0)
           (-70.0 20.0)
  end
  begin
     id 5 
     name ltoes
     direction 1.53474e-011 -4.21647e-011 1   
     length 1.06748   
     axis -90 -1.13533e-015 20   XYZ
    dof rx
    limits (-90.0 20.0)
  end
  begin
     id 6 
     name rhipjoint
     direction -0.632471 -0.659587 0.406111   
     length 2.62319  
     axis 0 -0 0  XYZ 
  end
  begin
     id 7 
     name rfemur
     direction -0.34202 -0.939693 0   
     length 7.21735   
     axis 0 -0 -20   XYZ
    dof rx ry rz
    limits (-160.0 20.0)
           (-70.0 70.0)
           (-70.0 60.0)
  end
  begin
     id 8 
     name rtibia
     direction -0.34202 -0.939693 0   
     length 7.02558   
     axis 0 -0 -20   XYZ
    dof rx
    limits (-10.0 170.0)
 end
 begin
     id 9 
     name rfoot
     direction -0.16057 -0.441164 0.882945   
     length 2.10014  
     axis -90 1.13533e-015 -20   XYZ
    dof rx rz
    limits (-45.0 90.0)
           (-20.0 70.0)
  end
  begin
     id 10 
     name rtoes
     direction -1.53553e-011 -4.2192e-011 1   
     length 1.02554   
     axis -90 1.13533e-015 -20   XYZ
    dof rx
    limits (-90.0 20.0)
  end
  begin
     id 11 
     name lowerback
     direction 0.0401429 0.998861 -0.0258085   
     length 1.80848   
     axis 0 -0 0   XYZ
    dof rx ry rz
    limits (-20.0 45.0)
           (-30.0 30.0)
           (-30.0 30.0)
  end
  begin
     id 12 
     name upperback
     direction -0.0130978 0.999914 -0.000352645   
     length 1.8116   
     axis 0 -0 0   XYZ
    dof rx ry rz
    limits (-20.0 45.0)
           (-30.0 30.0)
           (-30.0 30.0)
  end
  begin
     id 13 
     name thorax
     direction -0.0300198 0.999453 0.0138573   
     length 1.81778   
     axis 0 -0 0   XYZ
    dof rx ry rz
    limits (-20.0 45.0)
           (-30.0 30.0)
           (-30.0 30.0)
  end
  begin
     id 14 
     name lowerneck
     direction -0.0401726 0.999191 -0.00173647   
     length 2.10594   
     axis 0 -0 0   XYZ
    dof rx ry rz
    limits (-20.0 45.0)
           (-30.0 30.0)
           (-30.0 30.0)
  end
  begin
     id 15 
     name upperneck
     direction 0.0119835 0.998501 0.0534085   
     length 2.07325   
     axis 0 -0 0   XYZ
    dof rx ry rz
    limits (-20.0 45.0)
           (-30.0 30.0)
           (-30.0 30.0)
  end
  begin
     id 16
     name head
     direction 0.00628309 0.999826 0.0175921  
     length 2.15096  
     axis 0 -0 0   XYZ
    dof rx ry rz
    limits (-20.0 45.0)
           (-30.0 30.0)
           (-30.0 30.0)
  end
  begin
     id 17 
     name lclavicle
     direction 0.895501 0.429681 -0.115981  
     length 4.18092  
     axis 0 -0 0   XYZ
    dof ry rz
    limits (-20.0 10.0)
           (0.0 20.0)
  end
  begin
     id 18 
     name lhumerus
     direction 1 -4.48961e-011 -3.38433e-028   
     length 5.77237   
     axis 180 -30 -90   XYZ
    dof rx ry rz
    limits (-60.0 90.0)
           (-90.0 90.0)
           (-90.0 90.0)
  end
  begin
     id 19
     name lradius
     direction 1 -4.4901e-011 1.11983e-026   
     length 2.91878   
     axis 180 -30 -90   XYZ
    dof rx
    limits (-10.0 170.0)
  end
  begin
     id 20
     name lwrist
     direction 1 -4.48934e-011 1.88176e-026   
     length 1.45939   
     axis -1.23311e-014 90 90   XYZ
    dof ry
    limits (-180.0 0.0)
 end
  begin
     id 21 
     name lhand
     direction 1 -4.4895e-011 3.76352e-026   
     length 1.06566   
     axis -2.40147e-014 90 90   XYZ
    dof rx rz
    limits (-90.0 90.0)
           (-45.0 45.0)
  end
  begin
     id 22 
     name lfingers
     direction 1 -4.49005e-011 7.52705e-026   
     length 0.859162   
     axis -4.80295e-014 90 90   XYZ
    dof rx
    limits (0.0 90.0)
  end
  begin
     id 23
     name lthumb
     direction 0.707107 -6.34885e-011 0.707107   
     length 1.23359   
     axis -90 45 -9.86935e-015   XYZ
    dof rx rz
    limits (-45.0 45.0)
           (-45.0 45.0)
  end
  begin
     id 24 
     name rclavicle
     direction -0.91006 0.40451 -0.0903492   
     length 4.23293  
     axis 0 -0 0   XYZ 
    dof ry rz
    limits (-10.0 20.0)
           (-20.0 0.0)
  end
  begin
     id 25 
     name rhumerus
     direction -1 -4.4897e-011 1.7415e-027  
     length 5.49854   
     axis 180 30 90   XYZ
    dof rx ry rz
    limits (-90.0 60.0)
           (-90.0 90.0)
           (-90.0 90.0)
  end
  begin
     id 26 
     name rradius
     direction -1 -4.48963e-011 1.21259e-026   
     length 3.1186   
     axis 180 30 90   XYZ
    dof rx
    limits (-10.0 170.0)
  end
  begin
     id 27 
     name rwrist
     direction -1 -4.48967e-011 1.88176e-026   
     length 1.5593   
     axis -1.23311e-014 -90 -90   XYZ
    dof ry
    limits (-180.0 0.0)
  end
  begin
     id 28
     name rhand
     direction -1 -4.4895e-011 3.76352e-026   
     length 0.71207   
     axis -2.40147e-014 -90 -90   XYZ
    dof rx rz
    limits (-90.0 90.0)
           (-45.0 45.0)
  end
  begin
     id 29
     name rfingers
     direction -1 -4.49005e-011 7.52705e-026   
     length 0.574089   
     axis -4.80295e-014 -90 -90   XYZ
    dof rx
    limits (0.0 90.0)
  end
  begin
     id 30
     name rthumb
     direction -0.707107 -6.34982e-011 0.707107   
     length 0.824281   
     axis -90 -45 9.86935e-015   XYZ
    dof rx rz
    limits (-45.0 45.0)
           (-45.0 45.0)
  end
:hierarchy
  begin
    root lhipjoint rhipjoint lowerback
    lhipjoint lfemur
    lfemur ltibia
    ltibia lfoot
    lfoot ltoes
    rhipjoint rfemur
    rfemur rtibia
    rtibia rfoot
    rfoot rtoes
    lowerback upperback
    upperback thorax
    thorax lowerneck lclavicle rclavicle
    lowerneck upperneck
    upperneck head
    lclavicle lhumerus
    lhumerus lradius
    lradius lwrist
    lwrist lhand lthumb
    lhand lfingers
    rclavicle rhumerus
    rhumerus rradius
    rradius rwrist
    rwrist rhand rthumb
    rhand rfingers
  end

#!OML:ASF C:\ViconDB\ViconDB\414\Spring2016\042216\male.ASF
:FULLY-SPECIFIED
:DEGREES
482
root 41.5602 17.1296 12.1303 -23.5485 87.4949 -16.1514
lowerback 1.40835 -2.22083 5.37406
upperback -0.158966 -2.87749 -0.947314
thorax -1.26749 -1.47849 -3.90875
lowerneck -2.99057 8.94331 -1.96739
upperneck 1.49905 12.0695 -2.00116
head 0.956619 5.99934 -0.0915397
rclavicle -6.69656e-015 1.32192e-014
rhumerus -39.2688 9.89275 -98.3653
rradius 65.325
rwrist 6.84309
rhand 5.78302 -17.0155
rfingers 7.12502
rthumb 31.1165 -44.3947
lclavicle -6.69656e-015 1.32192e-014
lhumerus -34.23 2.77961 89.4826
lradius 70.0876
lwrist 17.7962
lhand -14.9427 6.88245
lfingers 7.12502
lthumb 11.22 36.5624
rfemur -19.398 1.23753 19.9718
rtibia 63.8987
rfoot -14.0892 -7.13411
rtoes -17.8906
lfemur -19.0892 0.0413172 -22.0339
ltibia 40.9303
lfoot -13.8332 13.2584
ltoes -16.6548
483
root 41.7301 17.1963 12.1345 -21.8188 87.4643 -14.5952
lowerback 1.07455 -2.23733 5.4677
upperback -0.152438 -2.91812 -1.00507
thorax -1.08568 -1.49466 -4.0337
lowerneck -2.8548 9.04604 -1.84804
upperneck 1.46405 12.2028 -2.16357
head 0.941292 6.06632 -0.162639
rclavicle 4.01421e-014 3.57812e-015
rhumerus -39.8227 9.06553 -97.8824
rradius 63.565
rwrist 6.81764
rhand 6.04291 -17.0105
rfingers 7.12502
rthumb 31.3642 -44.3419
lclavicle 4.01421e-014 3.57812e-015
lhumerus -33.7776 2.90734 89.6614
lradius 70.6524
lwrist 17.1845
lhand -14.5277 6.92242
lfingers 7.12502
lthumb 11.6202 36.5802
rfemur -19.4284 1.80827 19.917
rtibia 61.2848
rfoot -14.276 -7.08538
rtoes -17.288
lfemur -18.3828 0.0433809 -22.1283
ltibia 40.4905
lfoot -12.1758 13.0141
ltoes -20.6251
484
root 41.8941 17.2464 12.1505 -21.9818 87.4163 -14.8728
lowerback 0.789511 -2.30425 5.29512
upperback -0.0816886 -3.02602 -0.889726
thorax -0.849421 -1.53903 -3.82849
lowerneck -2.83649 9.20285 -1.88474
upperneck 1.43911 12.4188 -2.33976
head 0.940537 6.17307 -0.207066
rclavicle -5.35228e-014 5.26779e-015
rhumerus -40.2001 8.5116 -97.2118
rradius 61.6438
rwrist 6.76282
rhand 6.0304 -17.1268
rfingers 7.12502
rthumb 31.3523 -44.4605
lclavicle -5.35228e-014 5.26779e-015
lhumerus -33.3121 2.8523 90.0062
lradius 71.1938
lwrist 17.4912
lhand -14.5236 6.22492
lfingers 7.12502
lthumb 11.6242 35.8825
rfemur -19.3429 2.34449 20.0016
rtibia 58.536
rfoot -14.294 -7.22381
rtoes -17.5902
lfemur -17.6584 -0.114087 -22.0737
ltibia 40.1715
lfoot -10.3198 12.507
ltoes -24.9367
485
root 42.0425 17.2979 12.1667 -23.5723 87.3083 -16.6022
lowerback 0.759663 -2.38549 5.2705
upperback -0.129022 -3.13419 -0.797406
thorax -0.886386 -1.59452 -3.71647
lowerneck -2.95092 9.35984 -1.955
upperneck 1.66437 12.6425 -2.34499
head 1.02686 6.27989 -0.181283
rclavicle 2.52332e-014 4.27387e-015
rhumerus -40.6341 7.72587 -96.6157
rradius 59.5375
rwrist 7.16677
rhand 6.49703 -17.089
rfingers 7.12502
rthumb 31.7968 -44.3355
lclavicle 2.52332e-014 4.27387e-015
lhumerus -32.8721 2.94041 90.2856
lradius 71.7298
lwrist 17.6601
lhand -14.7095 6.66325
lfingers 7.12502
lthumb 11.445 36.3309
rfemur -19.2263 3.12268 20.2057
rtibia 55.5802
rfoot -14.1041 -7.53236
rtoes -16.9003
lfemur -17.134 -0.146814 -21.9164
ltibia 39.9463
lfoot -9.99484 12.582
ltoes -25.6692
486
root 42.1942 17.35 12.1817 -28.0317 87.1895 -21.2551
lowerback 0.569066 -2.42109 5.40804
upperback -0.164863 -3.18872 -0.648413
thorax -0.821147 -1.62051 -3.646
lowerneck -2.91926 9.43986 -1.95958
upperneck 1.73172 12.7576 -2.50174
head 1.05386 6.335 -0.223884
rclavicle 1.50207e-014 1.77912e-014
rhumerus -41.0244 6.67508 -95.8515
rradius 57.4969
rwrist 7.18089
rhand 6.79285 -17.6436
rfingers 7.12502
rthumb 32.0785 -44.8338
lclavicle 1.50207e-014 1.77912e-014
lhumerus -32.7833 2.67921 90.6441
lradius 72.1976
lwrist 17.5749
lhand -14.7686 6.6181
lfingers 7.12502
lthumb 11.3879 36.2889
rfemur -19.0271 3.83703 20.5637
rtibia 52.5368
rfoot -13.4531 -7.64971
rtoes -18.0264
lfemur -16.6815 -0.399717 -21.6412
ltibia 39.7324
lfoot -10.4146 13.1847
ltoes -24.8914
